<svg xmlns="http://www.w3.org/2000/svg" xmlns:xlink="http://www.w3.org/1999/xlink" width="610.99" height="554.51" viewBox="0 0 610.99 554.51"><defs><linearGradient id="a" x1="3548.53" y1="-1002.42" x2="4203.7" y2="-1002.42" gradientTransform="matrix(0.3, 0, 0, -0.3, 4.9, 65.1)" gradientUnits="userSpaceOnUse"><stop offset="0" stop-color="#3c0102"/><stop offset="1" stop-color="#d40202"/></linearGradient><linearGradient id="b" x1="2856.05" y1="-844.89" x2="3908.3" y2="-844.89" gradientTransform="matrix(0.3, 0, 0, -0.3, 4.9, 65.1)" gradientUnits="userSpaceOnUse"><stop offset="0" stop-color="#d40202"/><stop offset="1" stop-color="#3c0102"/></linearGradient><linearGradient id="c" x1="2183.87" y1="-542.2" x2="3750.93" y2="-550.95" gradientTransform="matrix(0.3, 0, 0, -0.3, 4.9, 65.1)" gradientUnits="userSpaceOnUse"><stop offset="0" stop-color="#d40202"/><stop offset="0.3" stop-color="#880202"/><stop offset="1" stop-color="#3c0102"/></linearGradient></defs><path d="M1258.66,445.05a4.34,4.34,0,0,1-.2.5,103.49,103.49,0,0,1-15.5,26.11l-.62.75a90.68,90.68,0,0,1-139.61-3.09q-6.45-11.2-13.32-23.06h0l-9.5-16.44L1070,412.69,1101,359c24.62-42.69,34.34-59.48,50.4-87.24,11.2-19.38,20.3-35,25.77-44.62l75.12,130.08a99.76,99.76,0,0,1,6.4,87.79Z" transform="translate(-654.94 46.63)" fill="url(#a)"/><path d="M1177.87,228.46l-24.53,42.45V271L1143,288.88h0q-21.62,37.51-41.24,71.38l-10.65,18.4-20.52,35.43q-10.38,18-20.17,34.92h0q-5.94,10.23-11.58,20.05l-.12.15a100.54,100.54,0,0,1-157.38,1.41,114.74,114.74,0,0,1-7.54-11.49,116.06,116.06,0,0,1-6-11.91,90.16,90.16,0,0,1,1.07-68.52q5.3-9.12,10.75-18.64h0l79.83-138.2q6.87-11.9,14-24.29L995.17,160a94.7,94.7,0,0,1,151,13.4l4.78,8.31,26.94,46.72Z" transform="translate(-654.94 46.63)" fill="url(#b)"/><path d="M1049.22,43.44v.13a89.58,89.58,0,0,1-7.71,36.34l-9.42,16.32v.09l-36.82,63.77-21.64,37.54q-7.1,12.35-14,24.29l-79.82,138.2h0l-10.75,18.64L848.74,414q-11.07,19.16-21.16,36.69h0q-4.64,7.92-9.08,15.72a90.27,90.27,0,0,1-133.76,14.27A102.29,102.29,0,0,1,655,412.29c0-1.11-.06-2.25-.06-3.37a100,100,0,0,1,13.67-50.44l74.08-128.33L853.61,38,873.44,3.85a99.6,99.6,0,0,1,65.32-48.1h.2a103,103,0,0,1,21.44-2.38h1.52a90,90,0,0,1,87.3,89.92v.15h0Z" transform="translate(-654.94 46.63)" fill="url(#c)"/></svg>