<svg xmlns="http://www.w3.org/2000/svg" width="460.5" height="287" viewBox="0 0 460.5 287">
  <defs>
    <style>
      .cls-1 {
        fill: #d40203;
      }
    </style>
  </defs>
  <g id="gear" transform="translate(0 -86.75)">
    <path id="Path_2" data-name="Path 2" class="cls-1" d="M123.5,142.75a67.5,67.5,0,1,0,67.5,67.5A67.576,67.576,0,0,0,123.5,142.75Zm0,120a52.5,52.5,0,1,1,52.5-52.5A52.56,52.56,0,0,1,123.5,262.75Z"/>
    <path id="Path_3" data-name="Path 3" class="cls-1" d="M224.97,272.829l-8.555-8.555A106.241,106.241,0,0,0,227.44,237.75H239.5a7.5,7.5,0,0,0,7.5-7.5v-40a7.5,7.5,0,0,0-7.5-7.5H227.44a106.263,106.263,0,0,0-11.025-26.524l8.555-8.555a7.5,7.5,0,0,0,0-10.606l-28.284-28.284a7.5,7.5,0,0,0-10.607,0l-8.554,8.554A106.285,106.285,0,0,0,151,106.31V94.25a7.5,7.5,0,0,0-7.5-7.5h-40a7.5,7.5,0,0,0-7.5,7.5v12.06a106.307,106.307,0,0,0-26.525,11.025l-8.554-8.554a7.5,7.5,0,0,0-10.608,0L22.03,137.064a7.5,7.5,0,0,0,0,10.606l8.555,8.555A106.21,106.21,0,0,0,19.56,182.749H7.5a7.5,7.5,0,0,0-7.5,7.5v40a7.5,7.5,0,0,0,7.5,7.5H19.56a106.248,106.248,0,0,0,11.025,26.524l-8.555,8.555a7.5,7.5,0,0,0,0,10.606l28.283,28.284a7.5,7.5,0,0,0,10.608,0l8.554-8.554A106.307,106.307,0,0,0,96,314.189v12.06a7.5,7.5,0,0,0,7.5,7.5h40a7.5,7.5,0,0,0,7.5-7.5v-12.06a106.285,106.285,0,0,0,26.524-11.025l8.554,8.554a7.5,7.5,0,0,0,10.607,0l28.284-28.284A7.5,7.5,0,0,0,224.97,272.829Zm-10.829-44.071a91.564,91.564,0,0,1-13.491,32.469,7.5,7.5,0,0,0,.949,9.444l7.461,7.46-17.678,17.678-7.46-7.46a7.5,7.5,0,0,0-9.444-.95,91.563,91.563,0,0,1-32.47,13.492,7.5,7.5,0,0,0-6.008,7.35v10.508H111V308.241a7.5,7.5,0,0,0-6.008-7.35A91.586,91.586,0,0,1,72.521,287.4a7.5,7.5,0,0,0-9.444.95l-7.46,7.46L37.94,278.132l7.461-7.46a7.5,7.5,0,0,0,.949-9.444,91.576,91.576,0,0,1-13.493-32.47,7.5,7.5,0,0,0-7.35-6.007H15v-25H25.508a7.5,7.5,0,0,0,7.35-6.007,91.612,91.612,0,0,1,13.493-32.47,7.5,7.5,0,0,0-.949-9.444l-7.461-7.46,17.677-17.677,7.46,7.46a7.5,7.5,0,0,0,9.444.95,91.56,91.56,0,0,1,32.471-13.492,7.5,7.5,0,0,0,6.008-7.35V101.75h25v10.508a7.5,7.5,0,0,0,6.008,7.35,91.581,91.581,0,0,1,32.47,13.492,7.5,7.5,0,0,0,9.444-.95l7.46-7.46,17.678,17.678-7.461,7.46a7.5,7.5,0,0,0-.949,9.444,91.527,91.527,0,0,1,13.491,32.469,7.5,7.5,0,0,0,7.351,6.008H232v25H221.491A7.5,7.5,0,0,0,214.141,228.758Z"/>
    <path id="Path_4" data-name="Path 4" class="cls-1" d="M351.5,294.75h-9.021a55.21,55.21,0,0,0-10.813-26.059l6.392-6.393a7.5,7.5,0,0,0-10.607-10.606l-6.392,6.392A55.214,55.214,0,0,0,295,247.271V238.25a7.5,7.5,0,1,0-15,0v9.021a55.21,55.21,0,0,0-26.059,10.813l-6.392-6.392A7.5,7.5,0,0,0,236.942,262.3l6.392,6.393a55.21,55.21,0,0,0-10.813,26.059H223.5a7.5,7.5,0,0,0,0,15h9.021a55.21,55.21,0,0,0,10.813,26.059l-6.392,6.393a7.5,7.5,0,0,0,10.608,10.606l6.392-6.392A55.214,55.214,0,0,0,280,357.229v9.021a7.5,7.5,0,0,0,15,0v-9.021a55.21,55.21,0,0,0,26.059-10.813l6.392,6.392A7.5,7.5,0,0,0,338.06,342.2l-6.392-6.393a55.209,55.209,0,0,0,10.813-26.059H351.5a7.5,7.5,0,1,0,0-15Zm-64,48a40.5,40.5,0,1,1,40.5-40.5A40.546,40.546,0,0,1,287.5,342.75Z"/>
    <path id="Path_5" data-name="Path 5" class="cls-1" d="M123.5,174.75a35.5,35.5,0,1,0,35.5,35.5A35.54,35.54,0,0,0,123.5,174.75Zm0,56a20.5,20.5,0,1,1,20.5-20.5A20.523,20.523,0,0,1,123.5,230.75Z"/>
    <path id="Path_6" data-name="Path 6" class="cls-1" d="M287.5,278.75a23.5,23.5,0,1,0,23.5,23.5A23.527,23.527,0,0,0,287.5,278.75Zm0,32a8.5,8.5,0,1,1,8.5-8.5A8.51,8.51,0,0,1,287.5,310.75Z"/>
    <path id="Path_7" data-name="Path 7" class="cls-1" d="M375.5,134.75a39.5,39.5,0,1,0,39.5,39.5A39.545,39.545,0,0,0,375.5,134.75Zm0,64a24.5,24.5,0,1,1,24.5-24.5A24.528,24.528,0,0,1,375.5,198.75Z"/>
    <path id="Path_8" data-name="Path 8" class="cls-1" d="M445.424,159l-.078,0a71.074,71.074,0,0,0-9.7-23.328l.075-.081a15.25,15.25,0,0,0-10.9-25.91h0a15.142,15.142,0,0,0-10.66,4.346l-.081.074a71.069,71.069,0,0,0-23.327-9.695l0-.078a15.25,15.25,0,0,0-30.5,0l0,.078a71.081,71.081,0,0,0-23.327,9.695l-.081-.075a15.25,15.25,0,0,0-21.566,21.565l.076.082a71.1,71.1,0,0,0-9.7,23.328l-.078,0a15.25,15.25,0,0,0,0,30.5l.076,0a71.069,71.069,0,0,0,9.7,23.327l-.076.082a15.25,15.25,0,0,0,10.9,25.909h0a15.147,15.147,0,0,0,10.66-4.345l.081-.075a71.081,71.081,0,0,0,23.327,9.695l0,.078A15.268,15.268,0,0,0,375.5,259.251h0a15.25,15.25,0,0,0,15.248-15.076l0-.078A71.069,71.069,0,0,0,414.08,234.4l.082.075a15.249,15.249,0,0,0,21.564-21.565l-.075-.081a71.09,71.09,0,0,0,9.7-23.327l.076,0a15.251,15.251,0,0,0,0-30.5ZM375.5,230.75a56.5,56.5,0,1,1,56.5-56.5A56.5,56.5,0,0,1,375.5,230.75Z"/>
  </g>
</svg>
