<svg xmlns="http://www.w3.org/2000/svg" width="234.373" height="240" viewBox="0 0 234.373 343">
  <defs>
    <style>
      .cls-1 {
        fill: #d40203;
      }
    </style>
  </defs>
  <g id="lightbulb" transform="translate(-9.501 0)">
    <path id="Path_9" data-name="Path 9" class="cls-1" d="M204.82,29.861C179.662,7.339,147.193-3,113.312.754,59.457,6.727,16.1,50.172,10.216,104.066A116.593,116.593,0,0,0,45.538,201.6c17.058,16.355,26.844,38.866,26.844,61.754v56.781H86.673L103.822,343h40.015l17.149-22.866h14.291V268.687a85.753,85.753,0,0,1,29.2-63.869,117.156,117.156,0,0,0,.343-174.956Zm-66.7,301.7H109.539l-8.575-11.433H146.7ZM163.845,308.7H83.815V297.263h80.03Zm0-22.866H83.815V274.4h80.03Zm-45.731-62.88h11.433v40.015H118.113Zm78.772-26.69a97.479,97.479,0,0,0-32.869,66.7H140.973V217.234c0-42.2,8.975-57.164,34.3-57.164a5.716,5.716,0,0,0,0-11.433c-42.13,0-45.44,39.277-45.7,62.88h-11.5c-.263-23.6-3.573-62.88-45.7-62.88a5.716,5.716,0,1,0,0,11.433c25.324,0,34.3,14.96,34.3,57.164v45.731H83.8c-.109-25.85-11.164-51.208-30.366-69.62a105.242,105.242,0,0,1-31.869-88.038C26.885,56.694,66,17.508,114.575,12.118a105.747,105.747,0,0,1,82.31,184.142Z" transform="translate(0)"/>
    <path id="Path_10" data-name="Path 10" class="cls-1" d="M162.444,21.863a5.724,5.724,0,0,0-7.871,1.835c-3.5,5.631-7.866,8.735-12.3,8.735s-8.792-3.1-12.3-8.735c-.029-.046-.08-.069-.109-.12a5.861,5.861,0,0,0-.8-.846,5.941,5.941,0,0,0-.806-.76c-.051-.034-.074-.086-.126-.114a5.861,5.861,0,0,0-.8-.3,5.505,5.505,0,0,0-1.132-.417,5.636,5.636,0,0,0-1.075-.04,5.484,5.484,0,0,0-1.1.04,5.692,5.692,0,0,0-1.149.429,5.55,5.55,0,0,0-.777.292c-.046.029-.069.08-.114.109a5.755,5.755,0,0,0-.84.789,5.159,5.159,0,0,0-.766.817c-.029.046-.08.069-.114.12-3.5,5.631-7.866,8.735-12.3,8.735s-8.792-3.1-12.3-8.735c-.029-.046-.08-.069-.109-.12a5.86,5.86,0,0,0-.8-.846,5.94,5.94,0,0,0-.806-.76c-.051-.034-.074-.086-.126-.114a5.862,5.862,0,0,0-.8-.3,5.506,5.506,0,0,0-1.132-.417,5.636,5.636,0,0,0-1.075-.04,5.484,5.484,0,0,0-1.1.04,5.692,5.692,0,0,0-1.149.429,5.548,5.548,0,0,0-.777.292c-.046.029-.069.08-.114.109a5.755,5.755,0,0,0-.84.789,5.158,5.158,0,0,0-.766.817c-.029.046-.08.069-.114.12-3.5,5.631-7.866,8.735-12.3,8.735s-8.792-3.1-12.3-8.735c-.029-.046-.08-.069-.109-.12a5.86,5.86,0,0,0-.8-.846,5.94,5.94,0,0,0-.806-.76c-.051-.034-.074-.086-.126-.114a5.864,5.864,0,0,0-.8-.3,5.506,5.506,0,0,0-1.132-.417,5.637,5.637,0,0,0-1.075-.04,5.484,5.484,0,0,0-1.1.04,5.692,5.692,0,0,0-1.149.429,5.548,5.548,0,0,0-.777.292c-.046.029-.069.08-.114.109a5.754,5.754,0,0,0-.84.789,5.159,5.159,0,0,0-.766.817c-.029.046-.08.069-.114.12-3.5,5.631-7.866,8.735-12.3,8.735s-8.792-3.1-12.3-8.735a5.717,5.717,0,1,0-9.706,6.042c5.665,9.112,13.479,14.131,22,14.131,6.3,0,12.2-2.755,17.149-7.866,4.945,5.11,10.85,7.866,17.149,7.866s12.2-2.755,17.149-7.866c4.945,5.11,10.85,7.866,17.149,7.866s12.2-2.755,17.149-7.866c4.945,5.11,10.85,7.866,17.149,7.866,8.523,0,16.337-5.019,22-14.131A5.7,5.7,0,0,0,162.444,21.863Z" transform="translate(33.001 99.05)"/>
  </g>
</svg>
